# xmcd CD database file
#
# Track frame offsets:
#	150
#	12289
#	26128
#	38152
#	51119
#	65328
#	78168
#	89118
#	103517
#	116819
#	129682
#	145345
#	159015
#	172965
#
# Disc length: 2509 seconds
#
# Revision: 0
# Processed by: cddbd v1.4PL0 Copyright (c) Steve Scherf et al.
# Submitted via: CDex 1.51
#
DISCID=b509cb0e
DTITLE=Louis Armstrong - Giants of Jazz
DYEAR=2003
DGENRE=Jazz
TTITLE0=When The Saints Go Marchin'In
TTITLE1=C'est si Bon
TTITLE2=Jeepers Creepers
TTITLE3=Blueberry Hill
TTITLE4=You Rascal You
TTITLE5=Swing That Music
TTITLE6=Shadrack
TTITLE7=Can Anyone Explain
TTITLE8=The Flat Foot Floogie
TTITLE9=Heebie Jeebies
TTITLE10=When It's Sleepy Time Down South
TTITLE11=St. Louis Blues
TTITLE12=Nobody Knows The Trouble I've Seen
TTITLE13=La Vie En Rose
EXTD=YEAR: 2003
EXTT0=
EXTT1=
EXTT2=
EXTT3=
EXTT4=
EXTT5=
EXTT6=
EXTT7=
EXTT8=
EXTT9=
EXTT10=
EXTT11=
EXTT12=
EXTT13=
PLAYORDER=
